# xmcd
#
# Track frame offsets:
#	183
#	14590
#	30310
#	61273
#	81848
#	91395
#	113250
#	136070
#	149420
#	160910
#	177993
#
# Disc length: 2442 seconds
#
# Revision: 0
# Processed by: cddbd v1.5.1PL0 Copyright (c) Steve Scherf et al.
# Submitted via: dBpowerAMP V4.0
#
DISCID=8309880b
DTITLE=Hagelwätter Blues Bänd - Wätterfescht
DYEAR=1989
DGENRE=Blues
TTITLE0=Wätterfescht
TTITLE1=Härzschmärz
TTITLE2=Langi einsami Nächt
TTITLE3=Heiweh Blues
TTITLE4=De Frank
TTITLE5=Tropfe uf en heisse Schtei
TTITLE6=Reisefieber
TTITLE7=Ds Grosi
TTITLE8=Oh je minee!
TTITLE9=Tour de Sol
TTITLE10=Im siebete Himmel
EXTD=
EXTT0=
EXTT1=
EXTT2=
EXTT3=
EXTT4=
EXTT5=
EXTT6=
EXTT7=
EXTT8=
EXTT9=
EXTT10=
PLAYORDER=
